<?xml version="1.0" encoding="UTF-8"?>
<svg width="56px" height="57px" viewBox="0 0 56 57" version="1.1" xmlns="http://www.w3.org/2000/svg" xmlns:xlink="http://www.w3.org/1999/xlink">
    <title>google</title>
    <g id="Symbols" stroke="none" stroke-width="1" fill="none" fill-rule="evenodd">
        <g id="Group-10-Copy" fill-rule="nonzero">
            <g id="google">
                <path d="M14.5587864,36.6113635 C16.0112574,39.0981698 17.9455893,40.9997165 20.378054,42.3364764 C22.8248456,43.6811096 25.4997335,44.3525835 28.4237866,44.3525835 C32.0267454,44.3525835 34.9252984,43.3980108 37.1577722,42.0314327 L46.9180713,49.6238678 C44.8313303,51.5031387 42.4277053,52.9930708 39.713601,54.0906865 C36.3095981,55.4673053 32.5198066,56.1529583 28.3523113,56.1529583 C23.2194679,56.1529583 18.4811894,54.9402591 14.1593625,52.5170382 C9.83505224,50.092425 6.39018958,46.7352497 3.84130266,42.4621158 C3.51364553,41.9128082 3.20699552,41.355038 2.92135379,40.7888593 L12.9973546,32.8920254 C13.3589379,34.2094307 13.8795159,35.44837 14.5587864,36.6113635 Z" id="Combined-Shape" fill="#39AA58"></path>
                <path d="M2.92156095,15.4016089 L13.0021974,23.2440932 C12.5882878,24.7562937 12.3810683,26.3721864 12.3810683,28.0954394 C12.3810683,29.7983408 12.5867272,31.3962711 12.9976017,32.8929257 L2.92135379,40.7888593 C0.979832589,36.9405143 0.00889130106,32.7036989 0.00889130106,28.0954394 C0.00889130106,23.487016 0.979901657,19.2500631 2.92156095,15.4016089 Z" id="Combined-Shape" fill="#FBC014"></path>
                <path d="M28.3523113,0.0379204318 C32.5283257,0.0379204318 36.3614954,0.774588223 39.8417691,2.2518267 C42.1758234,3.24254036 44.2947679,4.51171864 46.1950561,6.05837907 L47.3341819,6.98552299 L38.8520878,15.4676171 L37.9337779,14.7879984 C37.0025398,14.098812 36.0266812,13.5317785 35.0049141,13.0854894 C33.1088958,12.2573435 30.8702961,11.8382953 28.280836,11.8382953 C25.3580922,11.8382953 22.6967742,12.5091234 20.2752852,13.8519491 C17.867487,15.1871826 15.9569355,17.0868167 14.5274527,19.5719175 C13.8666992,20.7206122 13.3582604,21.9435598 13.0024724,23.2430886 L2.92135379,15.4020195 C3.20699552,14.8358408 3.51364553,14.2780706 3.84130266,13.728763 C6.39018958,9.45562906 9.83505224,6.09845382 14.1593625,3.67384058 C18.4811894,1.25061968 23.2194679,0.0379204318 28.3523113,0.0379204318 Z" id="Combined-Shape" fill="#EB4E42"></path>
                <path d="M54.2608332,23.0552415 L54.5118892,24.0594655 C54.8731222,25.5043974 55.0518003,27.1125 55.0518003,28.8839537 C55.0518003,32.709035 54.4523416,37.0990825 53.4396895,39.9721885 C52.3542182,43.0518977 50.6970463,45.7606259 48.4738805,48.0872214 C47.9765598,48.6254601 47.4579197,49.1376927 46.9180713,49.6238678 L37.1574597,42.0316239 C41.0991285,39.6189206 42.9644963,35.9218388 42.9644963,33.926438 L26.8121149,33.926438 L26.8121149,23.0552415 L54.2608332,23.0552415 Z" id="Combined-Shape" fill="#4787F4"></path>
            </g>
        </g>
    </g>
</svg>